<svg width="368" height="87" viewBox="0 0 368 87" fill="none" xmlns="http://www.w3.org/2000/svg">
<path d="M0.835938 56V0.539997H3.65594V56H0.835938ZM12.1159 56V0.539997H20.5759V56H12.1159ZM23.3959 56V0.539997H29.0359V56H23.3959ZM16.3459 86.362C13.8393 86.362 11.9279 85.3907 10.6119 83.448C9.23327 81.5053 8.54394 78.748 8.54394 75.176C8.54394 71.7293 9.23327 69.0033 10.6119 66.998C11.9906 65.0553 13.9019 64.084 16.3459 64.084C18.7899 64.084 20.7013 65.0553 22.0799 66.998C23.4586 69.0033 24.1479 71.7293 24.1479 75.176C24.1479 78.748 23.4586 81.5053 22.0799 83.448C20.7639 85.3907 18.8526 86.362 16.3459 86.362ZM16.3459 84.2C18.0379 84.2 19.3226 83.448 20.1999 81.944C21.1399 80.3773 21.6099 78.1213 21.6099 75.176C21.6099 72.4187 21.1399 70.2253 20.1999 68.596C19.2599 67.0293 17.9753 66.246 16.3459 66.246C14.7166 66.246 13.4319 67.0293 12.4919 68.596C11.5519 70.2253 11.0819 72.4187 11.0819 75.176C11.0819 78.1213 11.5206 80.3773 12.3979 81.944C13.3379 83.448 14.6539 84.2 16.3459 84.2ZM31.8633 56V0.539997H34.6833V56H31.8633ZM40.3233 56V0.539997H51.6033V56H40.3233ZM57.2433 56V0.539997H60.0633V56H57.2433ZM46.3393 86.362C44.6473 86.362 43.2999 85.7353 42.2973 84.482C41.2946 83.2287 40.8246 81.38 40.8873 78.936V70.006H43.3313V78.936C43.3313 80.816 43.6759 82.1947 44.3653 83.072C44.9919 83.9493 45.8693 84.388 46.9973 84.388C48.1879 84.388 49.1906 83.8867 50.0053 82.884C50.8826 81.944 51.3213 80.5967 51.3213 78.842V70.006H53.7653V83.542C53.7653 84.106 53.7653 84.5447 53.7653 84.858C53.8279 85.234 53.9219 85.61 54.0473 85.986H51.6973C51.5093 85.61 51.4153 85.234 51.4153 84.858C51.3526 84.5447 51.3213 84.106 51.3213 83.542C50.8199 84.4193 50.1306 85.1087 49.2533 85.61C48.3759 86.1113 47.4046 86.362 46.3393 86.362ZM62.8906 56V0.539997H65.7106V56H62.8906ZM71.3506 56V0.539997H74.1706V56H71.3506ZM79.8106 56V0.539997H91.0906V56H79.8106ZM81.4086 69.63C83.1006 69.63 84.5106 70.2253 85.6386 71.416L84.5106 73.296L84.4166 73.672L84.1346 73.484C84.072 73.2333 84.0093 73.0453 83.9466 72.92C83.8213 72.732 83.602 72.544 83.2886 72.356C82.7246 71.98 82.0353 71.792 81.2206 71.792C80.406 71.792 79.6226 72.0113 78.8706 72.45C78.1186 72.826 77.5233 73.4527 77.0846 74.33C76.5833 75.2073 76.3326 76.2727 76.3326 77.526V85.986H73.7946V70.006H76.4266L76.3326 72.92C76.7713 71.9173 77.4606 71.1027 78.4006 70.476C79.3406 69.912 80.3433 69.63 81.4086 69.63ZM93.918 56V0.539997H99.558V56H93.918ZM102.378 56V0.539997H108.018V56H102.378ZM113.658 56V0.539997H119.298V56H113.658ZM124.945 56V0.539997H130.585V56H124.945ZM133.405 56V0.539997H141.865V56H133.405ZM144.685 56V0.539997H147.505V56H144.685ZM140.361 86.362C137.541 86.362 135.254 85.422 133.499 83.542L134.815 81.38L134.909 81.098L135.191 81.192C135.191 81.2547 135.223 81.38 135.285 81.568C135.285 81.6933 135.348 81.85 135.473 82.038C135.536 82.1633 135.661 82.2887 135.849 82.414C137.165 83.542 138.795 84.106 140.737 84.106C141.991 84.106 143.056 83.7613 143.933 83.072C144.811 82.32 145.249 81.4427 145.249 80.44C145.249 79.7507 145.093 79.1553 144.779 78.654C144.529 78.2153 144.059 77.7767 143.369 77.338C142.68 76.8993 141.615 76.3667 140.173 75.74C138.043 74.9253 136.507 73.9853 135.567 72.92C134.69 71.8547 134.251 70.664 134.251 69.348C134.251 67.7187 134.847 66.4027 136.037 65.4C137.228 64.3973 138.826 63.896 140.831 63.896C142.022 63.896 143.15 64.1467 144.215 64.648C145.218 65.1493 146.127 65.8073 146.941 66.622L145.343 68.784L145.155 68.596C145.155 68.5333 145.124 68.4393 145.061 68.314C145.061 68.126 144.999 67.9693 144.873 67.844C144.811 67.656 144.685 67.4993 144.497 67.374C143.996 66.8727 143.401 66.4967 142.711 66.246C142.085 66.058 141.333 65.964 140.455 65.964C139.327 65.964 138.45 66.2773 137.823 66.904C137.134 67.5307 136.789 68.2827 136.789 69.16C136.789 69.8493 136.915 70.4447 137.165 70.946C137.479 71.4473 138.011 71.9173 138.763 72.356C139.515 72.8573 140.643 73.39 142.147 73.954C144.215 74.8313 145.657 75.7087 146.471 76.586C147.223 77.526 147.599 78.6853 147.599 80.064C147.599 81.1293 147.349 82.132 146.847 83.072C146.283 84.012 145.469 84.7953 144.403 85.422C143.275 86.0487 141.928 86.362 140.361 86.362ZM155.973 56V0.539997H158.793V56H155.973ZM161.613 56V0.539997H167.253V56H161.613ZM172.893 56V0.539997H175.713V56H172.893ZM172.235 86.362C169.853 86.362 167.973 85.6413 166.595 84.2C165.153 82.7587 164.433 80.722 164.433 78.09C164.433 76.3353 164.777 74.8 165.467 73.484C166.093 72.2307 166.971 71.2907 168.099 70.664C169.164 69.9747 170.386 69.63 171.765 69.63C173.707 69.63 175.274 70.2567 176.465 71.51C177.655 72.826 178.251 74.7373 178.251 77.244C178.251 77.4947 178.251 77.8707 178.251 78.372H166.877C166.939 80.3147 167.472 81.7873 168.475 82.79C169.477 83.7927 170.762 84.294 172.329 84.294C174.021 84.294 175.399 83.6987 176.465 82.508L177.875 83.918C176.496 85.5473 174.616 86.362 172.235 86.362ZM175.713 76.398C175.713 74.894 175.337 73.7033 174.585 72.826C173.833 71.9487 172.83 71.51 171.577 71.51C170.449 71.51 169.446 71.9173 168.569 72.732C167.691 73.5467 167.159 74.7687 166.971 76.398H175.713ZM187 56V0.539997H189.82V56H187ZM195.46 56V0.539997H198.28V56H195.46ZM203.92 56V0.539997H215.2V56H203.92ZM205.518 69.63C207.21 69.63 208.62 70.2253 209.748 71.416L208.62 73.296L208.526 73.672L208.244 73.484C208.181 73.2333 208.119 73.0453 208.056 72.92C207.931 72.732 207.711 72.544 207.398 72.356C206.834 71.98 206.145 71.792 205.33 71.792C204.515 71.792 203.732 72.0113 202.98 72.45C202.228 72.826 201.633 73.4527 201.194 74.33C200.693 75.2073 200.442 76.2727 200.442 77.526V85.986H197.904V70.006H200.536L200.442 72.92C200.881 71.9173 201.57 71.1027 202.51 70.476C203.45 69.912 204.453 69.63 205.518 69.63ZM218.027 56V0.539997H229.307V56H218.027ZM232.127 56V0.539997H234.947V56H232.127ZM240.587 56V0.539997H243.407V56H240.587ZM240.681 70.006C240.305 71.886 239.522 74.2047 238.331 76.962L234.477 85.986H232.503L226.205 70.006H228.743L233.631 82.508L236.263 76.586C237.329 74.2047 238.018 72.0113 238.331 70.006H240.681ZM249.055 56V0.539997H251.875V56H249.055ZM263.155 56V0.539997H268.795V56H263.155ZM271.615 56V0.539997H274.435V56H271.615ZM259.301 83.918H263.437V72.074H259.489V70.006H265.881V83.918H269.641V85.986H259.301V83.918ZM264.565 66.622C264.063 66.622 263.625 66.4653 263.249 66.152C262.935 65.776 262.779 65.3373 262.779 64.836C262.779 64.3347 262.935 63.9273 263.249 63.614C263.562 63.238 264.001 63.05 264.565 63.05C265.003 63.05 265.411 63.238 265.787 63.614C266.163 63.99 266.351 64.3973 266.351 64.836C266.351 65.3373 266.163 65.776 265.787 66.152C265.411 66.4653 265.003 66.622 264.565 66.622ZM280.082 56V0.539997H282.902V56H280.082ZM294.182 56V0.539997H297.002V56H294.182ZM299.822 56V0.539997H305.462V56H299.822ZM296.814 86.362C295.247 86.362 293.869 86.0173 292.678 85.328C291.487 84.576 290.547 83.5733 289.858 82.32C289.169 81.0667 288.824 79.6253 288.824 77.996C288.824 76.4293 289.169 75.0193 289.858 73.766C290.547 72.5127 291.487 71.51 292.678 70.758C293.869 70.0687 295.247 69.724 296.814 69.724C298.067 69.724 299.227 69.9747 300.292 70.476C301.295 70.9773 302.141 71.698 302.83 72.638L301.232 74.236L301.044 74.424L300.856 74.236C300.856 74.048 300.793 73.86 300.668 73.672C300.605 73.5467 300.449 73.3587 300.198 73.108C299.697 72.6693 299.164 72.356 298.6 72.168C297.973 71.9173 297.284 71.792 296.532 71.792C295.592 71.792 294.746 72.0427 293.994 72.544C293.179 73.0453 292.553 73.766 292.114 74.706C291.613 75.5833 291.362 76.6173 291.362 77.808C291.362 78.9987 291.613 80.0953 292.114 81.098C292.615 82.038 293.273 82.7587 294.088 83.26C294.965 83.824 295.905 84.106 296.908 84.106C298.537 84.106 299.947 83.448 301.138 82.132L302.548 83.824C300.981 85.516 299.07 86.362 296.814 86.362ZM311.109 56V0.539997H313.929V56H311.109ZM316.749 56V0.539997H322.389V56H316.749ZM328.029 56V0.539997H330.849V56H328.029ZM327.371 86.362C324.99 86.362 323.11 85.6413 321.731 84.2C320.29 82.7587 319.569 80.722 319.569 78.09C319.569 76.3353 319.914 74.8 320.603 73.484C321.23 72.2307 322.107 71.2907 323.235 70.664C324.301 69.9747 325.523 69.63 326.901 69.63C328.844 69.63 330.411 70.2567 331.601 71.51C332.792 72.826 333.387 74.7373 333.387 77.244C333.387 77.4947 333.387 77.8707 333.387 78.372H322.013C322.076 80.3147 322.609 81.7873 323.611 82.79C324.614 83.7927 325.899 84.294 327.465 84.294C329.157 84.294 330.536 83.6987 331.601 82.508L333.011 83.918C331.633 85.5473 329.753 86.362 327.371 86.362ZM330.849 76.398C330.849 74.894 330.473 73.7033 329.721 72.826C328.969 71.9487 327.967 71.51 326.713 71.51C325.585 71.51 324.583 71.9173 323.705 72.732C322.828 73.5467 322.295 74.7687 322.107 76.398H330.849ZM342.137 56V0.539997H344.957V56H342.137ZM347.777 56V0.539997H359.057V56H347.777ZM364.697 56V0.539997H367.517V56H364.697ZM357.647 86.362C354.952 86.362 352.696 85.516 350.879 83.824L352.289 81.474L352.477 81.098L352.759 81.286C352.759 81.3487 352.759 81.4427 352.759 81.568C352.821 81.756 352.884 81.9127 352.947 82.038C353.072 82.226 353.197 82.414 353.323 82.602C353.887 83.1033 354.513 83.5107 355.203 83.824C355.892 84.0747 356.738 84.2 357.741 84.2C358.994 84.2 359.997 83.9807 360.749 83.542C361.438 83.1033 361.783 82.4767 361.783 81.662C361.783 80.9727 361.501 80.4087 360.937 79.97C360.373 79.5313 359.307 79.0927 357.741 78.654C353.73 77.4633 351.725 75.8027 351.725 73.672C351.725 72.4187 352.257 71.4473 353.323 70.758C354.325 70.006 355.767 69.63 357.647 69.63C359.088 69.63 360.31 69.8493 361.313 70.288C362.315 70.664 363.224 71.2907 364.039 72.168L362.535 73.86L362.347 74.142L362.159 73.954C362.159 73.7033 362.096 73.5153 361.971 73.39C361.908 73.202 361.751 73.014 361.501 72.826C360.937 72.3873 360.341 72.074 359.715 71.886C359.025 71.6353 358.367 71.51 357.741 71.51C356.738 71.51 355.892 71.698 355.203 72.074C354.576 72.3873 354.263 72.8573 354.263 73.484C354.263 74.1107 354.607 74.6433 355.297 75.082C355.923 75.5833 357.083 76.0847 358.775 76.586C360.78 77.2127 362.19 77.8707 363.005 78.56C363.882 79.2493 364.321 80.1893 364.321 81.38C364.321 82.8213 363.757 84.012 362.629 84.952C361.501 85.892 359.84 86.362 357.647 86.362Z" fill="#FFDB79"/>
</svg>
